<svg xmlns="http://www.w3.org/2000/svg" viewBox="0 0 303.63 669.53"><defs><style>.cls-1,.cls-11,.cls-12,.cls-2,.cls-3,.cls-8{fill:none;}.cls-1,.cls-10,.cls-11,.cls-3,.cls-6{stroke:#231f20;}.cls-1,.cls-10,.cls-2,.cls-3,.cls-6{stroke-miterlimit:10;}.cls-1{stroke-width:11px;}.cls-2{stroke:#2bace2;}.cls-2,.cls-6{stroke-width:6px;}.cls-3{stroke-width:2px;}.cls-4{fill:#231f20;}.cls-5,.cls-6{fill:#fff;}.cls-7{fill:#27aae1;}.cls-9{fill:#ed1c24;}.cls-10{fill:#fbb03d;stroke-width:4px;}.cls-11{stroke-width:8px;}.cls-12{stroke:#ed2224;stroke-width:3px;}.cls-13{fill:#fbb03c;}</style></defs><title>Asset 27</title><g id="Layer_2" data-name="Layer 2"><g id="Layer_1-2" data-name="Layer 1"><path class="cls-1" d="M30.19,82.49c-5.26,1.76-6.35,6.45-16.56,9.88l-.71.23s13.25,28,17.32,46.76c0,0,6.84.36,10.65,11.72s65.46,209.75,66.69,213.41-.46,14.42-10.36,17.74S79,377.13,75,372.37c-2.53-3-8.9-6.73-14.88-4.72-3.59,1.2-7,4.48-9.43,11.24-6.38,18,12.85,41.95,24.72,53.05s11.35,22.89,4.9,36.46-26.71,44.46-13.78,83,54.2,82.29,139,53.84c52.7-17.67,73-47.43,79.39-76.69,3.88-17.83,3.95-35.48-.95-50.09-12.93-38.56-47.71-51-61-57.92s-20.87-16-18.08-32,3.7-46.69-12.27-57.23c-6-4-10.71-4.48-14.3-3.28-6,2-8.8,8.84-9,12.73-.35,6.24-1.92,18-11.81,21.29s-17.73-4.25-19-7.91S66.82,155,63,143.66s1.44-15.77,1.44-15.77c-8.1-17.46-14.39-47.75-14.39-47.75l-.7.24c-10.21,3.42-13.91.34-19.17,2.11Z"/><path class="cls-2" d="M30.19,82.49c-5.26,1.76-6.35,6.45-16.56,9.88l-.71.23s13.25,28,17.32,46.76c0,0,6.84.36,10.65,11.72s65.46,209.75,66.69,213.41-.46,14.42-10.36,17.74S79,377.13,75,372.37c-2.53-3-8.9-6.73-14.88-4.72-3.59,1.2-7,4.48-9.43,11.24-6.38,18,12.85,41.95,24.72,53.05s11.35,22.89,4.9,36.46-26.71,44.46-13.78,83,54.2,82.29,139,53.84c52.7-17.67,73-47.43,79.39-76.69,3.88-17.83,3.95-35.48-.95-50.09-12.93-38.56-47.71-51-61-57.92s-20.87-16-18.08-32,3.7-46.69-12.27-57.23c-6-4-10.71-4.48-14.3-3.28-6,2-8.8,8.84-9,12.73-.35,6.24-1.92,18-11.81,21.29s-17.73-4.25-19-7.91S66.82,155,63,143.66s1.44-15.77,1.44-15.77c-8.1-17.46-14.39-47.75-14.39-47.75l-.7.24c-10.21,3.42-13.91.34-19.17,2.11Z"/><path class="cls-3" d="M30.19,82.49c-5.26,1.76-6.35,6.45-16.56,9.88l-.71.23s13.25,28,17.32,46.77c0,0,6.84.35,10.65,11.71s65.46,209.75,66.69,213.41-.46,14.42-10.36,17.74S79,377.13,75,372.37c-2.53-3-8.9-6.73-14.88-4.72-3.59,1.2-7,4.48-9.43,11.24-6.38,18,12.85,41.95,24.72,53.05s11.35,22.89,4.9,36.47-26.71,44.45-13.78,83,54.2,82.29,139,53.84c52.7-17.67,73-47.43,79.39-76.69,3.88-17.83,3.95-35.48-.95-50.09-12.93-38.56-47.71-51-61-57.92s-20.87-16-18.08-32,3.7-46.69-12.27-57.23c-6-4-10.71-4.48-14.3-3.28-6,2-8.8,8.84-9,12.74-.35,6.23-1.92,18-11.81,21.28s-17.73-4.25-19-7.91S66.82,155,63,143.66s1.44-15.77,1.44-15.77c-8.1-17.45-14.39-47.75-14.39-47.75l-.7.24c-10.21,3.42-13.91.34-19.17,2.11Z"/><rect class="cls-4" x="9.19" y="105.81" width="5.04" height="2.08" transform="translate(-33.06 9.13) rotate(-18.36)"/><path class="cls-4" d="M10.57,107.23s1.1,1.25-.35,3.12-5.69,3.91-6.59,3.81-1.39.69-2.84-3.68-.58-4,.07-4.64,5.27-1.52,7.56-.9S10.57,107.23,10.57,107.23Z"/><polygon class="cls-4" points="18.75 120.05 13.97 121.64 14.62 123.61 19.41 122.02 18.75 120.05"/><path class="cls-4" d="M15.55,122.21s1.1,1.25-.36,3.12-5.68,3.91-6.58,3.81-1.39.69-2.84-3.68-.59-4,.07-4.64,5.27-1.52,7.56-.9S15.55,122.21,15.55,122.21Z"/><rect class="cls-4" x="19.98" y="135.49" width="5.04" height="2.08" transform="translate(-41.87 14.04) rotate(-18.36)"/><path class="cls-4" d="M21.35,136.91s1.11,1.25-.34,3.12-5.69,3.91-6.6,3.81-1.38.69-2.83-3.68-.59-4,.07-4.65,5.27-1.52,7.56-.89S21.35,136.91,21.35,136.91Z"/><rect class="cls-4" x="56.38" y="89.14" width="5.04" height="2.08" transform="matrix(0.95, -0.32, 0.32, 0.95, -25.43, 23.17)"/><path class="cls-4" d="M60.05,89.8s-.14,1.67,2.15,2.29,6.89-.27,7.55-.89,1.53-.28.08-4.64S67.89,83,67,82.88s-5.14,1.94-6.59,3.81S60.05,89.8,60.05,89.8Z"/><rect class="cls-4" x="61.36" y="104.12" width="5.04" height="2.08" transform="translate(-29.9 25.5) rotate(-18.38)"/><path class="cls-4" d="M65,104.78s-.13,1.66,2.15,2.29,6.9-.27,7.56-.89,1.53-.28.07-4.65S72.86,98,72,97.86s-5.13,1.93-6.59,3.8S65,104.78,65,104.78Z"/><rect class="cls-4" x="65.51" y="119.37" width="5.04" height="2.08" transform="translate(-34.53 27.62) rotate(-18.4)"/><path class="cls-4" d="M69.17,120s-.14,1.67,2.15,2.29,6.89-.27,7.55-.89,1.53-.28.08-4.65-1.94-3.57-2.84-3.67-5.13,1.94-6.59,3.81S69.17,120,69.17,120Z"/><rect class="cls-5" x="277.39" y="544.7" width="7.29" height="8.89"/><polygon class="cls-4" points="210.15 630.89 168.53 650.53 126.92 630.89 126.92 40.99 168.53 17.73 210.15 40.99 210.15 630.89"/><path class="cls-6" d="M133.64,642.41a6.72,6.72,0,0,1-6.72,6.72h0a6.72,6.72,0,0,1-6.72-6.72V27.12a6.72,6.72,0,0,1,6.72-6.72h0a6.72,6.72,0,0,1,6.72,6.72Z"/><path class="cls-6" d="M216.87,642.41a6.72,6.72,0,0,1-6.72,6.72h0a6.72,6.72,0,0,1-6.72-6.72V27.12a6.72,6.72,0,0,1,6.72-6.72h0a6.72,6.72,0,0,1,6.72,6.72Z"/><path class="cls-6" d="M175.25,659.81a6.72,6.72,0,0,1-6.72,6.72h0a6.72,6.72,0,0,1-6.72-6.72V9.72A6.72,6.72,0,0,1,168.53,3h0a6.72,6.72,0,0,1,6.72,6.72Z"/><path class="cls-7" d="M153.64,624.18c0,3.71-1.74,6.71-3.9,6.71h0c-2.15,0-3.89-3-3.89-6.71V44.68c0-3.71,1.74-6.72,3.89-6.72h0c2.16,0,3.9,3,3.9,6.72Z"/><path class="cls-7" d="M191.22,624.18c0,3.71-1.74,6.71-3.9,6.71h0c-2.15,0-3.89-3-3.89-6.71V44.68c0-3.71,1.74-6.72,3.89-6.72h0c2.16,0,3.9,3,3.9,6.72Z"/><path class="cls-8" d="M174.11,329.75a12.7,12.7,0,0,0-8.42-3.57l-3.33-.13V350l3.29-.19h0a12,12,0,0,0,4.57-1.07,13.69,13.69,0,0,0,3.84-2.6,11.59,11.59,0,0,0,2.55-3.67,10.68,10.68,0,0,0,.92-4.45,11.24,11.24,0,0,0-.92-4.52A11.64,11.64,0,0,0,174.11,329.75Z"/><path class="cls-8" d="M173,160.73a5.66,5.66,0,0,0-3.8-1.66l-3.56-.13v10.3l3.56-.13a6,6,0,0,0,3.86-1.55,4.15,4.15,0,0,0,1.51-3.31A4.62,4.62,0,0,0,173,160.73Z"/><path class="cls-8" d="M182.54,206.26h0a9.41,9.41,0,0,1-5.51-1.74A9.41,9.41,0,0,0,182.54,206.26Z"/><path class="cls-4" d="M148.86,61.83c.06.6.12,1.21.15,1.81V112.1c0,.75.18.93.4,1.15s.39.39,1.15.39a1.33,1.33,0,0,0,1.15-.45,1.2,1.2,0,0,0,.39-1.09V92.36h30a1.33,1.33,0,0,0,.56-.11,1.86,1.86,0,0,0,.54-.34,1.76,1.76,0,0,0,.37-.57,1.38,1.38,0,0,0,.08-.52,1.2,1.2,0,0,0-.4-1.1,1.33,1.33,0,0,0-1.15-.44h-30V64.91h37.26a1.32,1.32,0,0,0,.55-.11,1.94,1.94,0,0,0,.55-.34,2,2,0,0,0,.37-.57,1.41,1.41,0,0,0,.07-.52c0-.71-.15-.86-.39-1.1a1.34,1.34,0,0,0-1.15-.44Z"/><path class="cls-9" d="M140.2,64.14v48a10.41,10.41,0,0,0,17.7,7.38,9.92,9.92,0,0,0,3-7.38V101.18h21.16a10,10,0,0,0,4-.83,10.47,10.47,0,0,0,3.31-2.2,10.72,10.72,0,0,0,2.2-3.25,10.5,10.5,0,0,0-2.2-11.47,10.12,10.12,0,0,0-7.34-3H160.93V73.73h28.44a10.11,10.11,0,0,0,4-.82,10.34,10.34,0,0,0,5.52-5.46A10.31,10.31,0,0,0,189.37,53H145.83c-2.43,0-4.08.33-5,1a3.57,3.57,0,0,0-1.48,2.59,11.34,11.34,0,0,0,.27,3.58A23.69,23.69,0,0,1,140.2,64.14Zm50.71-.77a1.41,1.41,0,0,1-.07.52,2,2,0,0,1-.37.57,1.94,1.94,0,0,1-.55.34,1.32,1.32,0,0,1-.55.11H152.11V89.28h30a1.33,1.33,0,0,1,1.15.44,1.2,1.2,0,0,1,.4,1.1,1.38,1.38,0,0,1-.08.52,1.76,1.76,0,0,1-.37.57,1.86,1.86,0,0,1-.54.34,1.33,1.33,0,0,1-.56.11h-30V112.1a1.2,1.2,0,0,1-.39,1.09,1.33,1.33,0,0,1-1.15.45c-.76,0-.93-.18-1.15-.39s-.4-.4-.4-1.15V63.64c0-.6-.09-1.21-.15-1.81h40.51a1.34,1.34,0,0,1,1.15.44C190.76,62.51,190.91,62.66,190.91,63.37Z"/><path class="cls-4" d="M138,64.2v47.9a12.57,12.57,0,1,0,25.13,0v-8.71h19a12.35,12.35,0,0,0,4.9-1,12.64,12.64,0,0,0,4-2.67,12.91,12.91,0,0,0,2.67-3.92,12.3,12.3,0,0,0,1-5,12.12,12.12,0,0,0-3.69-9,12.25,12.25,0,0,0-8.88-3.61h-19V75.94h26.24a12.31,12.31,0,0,0,4.89-1,12.44,12.44,0,0,0,6.66-6.59A12.52,12.52,0,0,0,189.37,50.8H145.83c-3,0-5,.46-6.29,1.43a5.84,5.84,0,0,0-2.36,4.13,13.74,13.74,0,0,0,.32,4.29A23,23,0,0,1,138,64.2Zm1.38-7.61A3.57,3.57,0,0,1,140.86,54c.89-.66,2.54-1,5-1h43.54a10.08,10.08,0,0,1,7.33,3,10.54,10.54,0,0,1,2.21,11.47,10.34,10.34,0,0,1-5.52,5.46,10.11,10.11,0,0,1-4,.82H160.93v6.73h21.16a10.12,10.12,0,0,1,7.34,3,10.5,10.5,0,0,1,2.2,11.47,10.72,10.72,0,0,1-2.2,3.25,10.47,10.47,0,0,1-3.31,2.2,10,10,0,0,1-4,.83H160.93V112.1a9.92,9.92,0,0,1-3,7.38,10.34,10.34,0,0,1-17.7-7.38v-48a23.69,23.69,0,0,0-.55-4A11.34,11.34,0,0,1,139.38,56.59Z"/><path class="cls-4" d="M182.8,150.48a19.28,19.28,0,0,0-6.18-4.14,18.25,18.25,0,0,0-7.37-1.49H151.34c.06.61.12,1.22.15,1.82v49.22c0,.76.18.94.4,1.16s.39.39,1.15.39a1.35,1.35,0,0,0,1.15-.45c.23-.23.39-.39.39-1.1v-48.4l9.15.35,5.84.22a16.63,16.63,0,0,1,11,4.68,15.6,15.6,0,0,1,5,11.51,15.23,15.23,0,0,1-5.26,11.59,17,17,0,0,1-10.73,4.28l-5.65.22,4.56,4.26h0l-2.05-1.91h2.36l1.26,1,10.4-5.87a13,13,0,0,0,2.82-2.23,18.74,18.74,0,0,0,2.71-3.54,19.4,19.4,0,0,0,1.85-4.16,12.93,12.93,0,0,0,.59-3.89,18.31,18.31,0,0,0-1.48-7.37A19.53,19.53,0,0,0,182.8,150.48Z"/><path class="cls-4" d="M181.45,196.73l.11.1.1.11c.51.5.7.5.88.5h0a1.65,1.65,0,0,0,1.18-.43,3,3,0,0,0,.38-.71,2.79,2.79,0,0,0,.22-.89l-4.2.11Z"/><path class="cls-9" d="M196.26,170.54a21.87,21.87,0,0,0,1-6.51,27.12,27.12,0,0,0-2.2-10.85,28.06,28.06,0,0,0-14.94-14.94A27.21,27.21,0,0,0,169.25,136H148.31c-2.43,0-4.08.33-5,1a3.54,3.54,0,0,0-1.49,2.59,11.36,11.36,0,0,0,.27,3.58,23.4,23.4,0,0,1,.55,4v48.72a10.41,10.41,0,0,0,17.7,7.39,9.94,9.94,0,0,0,3-7.39v-4l12,11.25a11.12,11.12,0,0,0,1.6,1.35,9.41,9.41,0,0,0,5.51,1.74h.27a10.63,10.63,0,0,0,7.28-3.09,11.53,11.53,0,0,0,2.26-3.64,11.17,11.17,0,0,0,.82-4.13,10.15,10.15,0,0,0-.77-3.92,6.91,6.91,0,0,0-2.53-3.08l-5.07-2.87a21.24,21.24,0,0,0,4.79-3.75,27.47,27.47,0,0,0,4-5.18A27.89,27.89,0,0,0,196.26,170.54Zm-8.42-2.62a19.4,19.4,0,0,1-1.85,4.16,18.74,18.74,0,0,1-2.71,3.54,13,13,0,0,1-2.82,2.23l-10.4,5.87,14.3,11.69a2.79,2.79,0,0,1-.22.89,3,3,0,0,1-.38.71,1.65,1.65,0,0,1-1.18.43h0c-.18,0-.37,0-.88-.5l-.1-.11-.11-.1-1.29-1.21h0L168.49,184.6h0l-4.56-4.26,5.65-.22a17,17,0,0,0,10.73-4.28,15.23,15.23,0,0,0,5.26-11.59,15.6,15.6,0,0,0-5-11.51,16.63,16.63,0,0,0-11-4.68l-5.84-.22-9.15-.35v48.4c0,.71-.16.87-.39,1.1a1.35,1.35,0,0,1-1.15.45c-.76,0-.93-.18-1.15-.39s-.4-.4-.4-1.16V146.67c0-.6-.09-1.21-.15-1.82h17.91a18.25,18.25,0,0,1,7.37,1.49,19.28,19.28,0,0,1,6.18,4.14,19.53,19.53,0,0,1,4.15,6.18,18.31,18.31,0,0,1,1.48,7.37A12.93,12.93,0,0,1,187.84,167.92Zm-24.43,3.61V156.65l5.84.22a7.81,7.81,0,0,1,5.24,2.26,6.85,6.85,0,0,1,2.26,5.12,6.37,6.37,0,0,1-2.26,5,8.17,8.17,0,0,1-5.24,2.09Z"/><path class="cls-4" d="M176.75,164.25a6.85,6.85,0,0,0-2.26-5.12,7.81,7.81,0,0,0-5.24-2.26l-5.84-.22v14.88l5.84-.22a8.17,8.17,0,0,0,5.24-2.09A6.37,6.37,0,0,0,176.75,164.25ZM173,167.56a6,6,0,0,1-3.86,1.55l-3.56.13v-10.3l3.56.13a5.66,5.66,0,0,1,3.8,1.66,4.62,4.62,0,0,1,1.57,3.52A4.15,4.15,0,0,1,173,167.56Z"/><path class="cls-4" d="M195.45,177.73a30,30,0,0,0,2.92-6.54,24.24,24.24,0,0,0,1.09-7.16,29.32,29.32,0,0,0-2.39-11.72,30.46,30.46,0,0,0-6.47-9.62,30.77,30.77,0,0,0-9.62-6.48,29.53,29.53,0,0,0-11.73-2.38H148.31c-3,0-5,.45-6.29,1.43a5.84,5.84,0,0,0-2.36,4.13,13.76,13.76,0,0,0,.32,4.29,23,23,0,0,1,.5,3.55v48.66a12.61,12.61,0,0,0,21.44,9,12,12,0,0,0,3.66-7.88l8.31,7.78a11.92,11.92,0,0,0,8.65,3.71h.33a12.75,12.75,0,0,0,8.75-3.7l0,0,0,0a13.72,13.72,0,0,0,2.7-4.33,13.45,13.45,0,0,0,1-4.94,12.46,12.46,0,0,0-.94-4.75,9.12,9.12,0,0,0-3.32-4.07l-.08-.05-.09-.05-2-1.13a26.12,26.12,0,0,0,2.22-2A29.89,29.89,0,0,0,195.45,177.73Zm-10.65,7.8,5.07,2.87a6.91,6.91,0,0,1,2.53,3.08,10.15,10.15,0,0,1,.77,3.92,11.17,11.17,0,0,1-.82,4.13,11.53,11.53,0,0,1-2.26,3.64,10.63,10.63,0,0,1-7.28,3.09h-.27a9.41,9.41,0,0,1-5.51-1.74,11.12,11.12,0,0,1-1.6-1.35l-12-11.25v4a9.94,9.94,0,0,1-3,7.39,10.34,10.34,0,0,1-17.7-7.39V147.17a23.4,23.4,0,0,0-.55-4,11.36,11.36,0,0,1-.27-3.58,3.54,3.54,0,0,1,1.49-2.59c.88-.67,2.53-1,5-1h20.94a27.21,27.21,0,0,1,10.86,2.21,28.06,28.06,0,0,1,14.94,14.94,27.12,27.12,0,0,1,2.2,10.85,21.87,21.87,0,0,1-1,6.51,27.89,27.89,0,0,1-2.7,6.06,27.47,27.47,0,0,1-4,5.18A21.24,21.24,0,0,1,184.8,185.53Z"/><path class="cls-4" d="M160.93,253h-8.82V231.74h37.26a1.32,1.32,0,0,0,.55-.11,1.49,1.49,0,0,0,.55-.34,1.81,1.81,0,0,0,.37-.57,1.41,1.41,0,0,0,.07-.52c0-.71-.15-.86-.39-1.09a1.32,1.32,0,0,0-1.15-.45H148.86c.06.61.12,1.22.15,1.82v48.44c0,.76.18.94.4,1.16s.39.39,1.15.39h38.8a1.19,1.19,0,0,0,.55-.12,1.73,1.73,0,0,0,.55-.33,1.94,1.94,0,0,0,.37-.57,1.44,1.44,0,0,0,.07-.53c0-.7-.15-.86-.39-1.09a1.35,1.35,0,0,0-1.15-.45H152.11V256.1h30a1.26,1.26,0,0,0,.55-.11,1.47,1.47,0,0,0,.54-.33,1.66,1.66,0,0,0,.38-.58,1.34,1.34,0,0,0,.08-.52c0-.71-.16-.86-.39-1.09a1.34,1.34,0,0,0-1.16-.45Z"/><path class="cls-9" d="M189.37,240.56a10.07,10.07,0,0,0,4-.82,10.34,10.34,0,0,0,5.52-5.46,10.31,10.31,0,0,0-9.54-14.44H145.83c-2.43,0-4.08.33-5,1a3.56,3.56,0,0,0-1.49,2.59,11.34,11.34,0,0,0,.27,3.58,23.69,23.69,0,0,1,.55,4v48a10.18,10.18,0,0,0,10.37,10.37h38.8a10.08,10.08,0,0,0,4-.83,10.36,10.36,0,0,0,3.31-2.2,10.61,10.61,0,0,0,2.21-3.26,10.52,10.52,0,0,0-2.21-11.46,10.05,10.05,0,0,0-7.33-3H160.93v-3.64h21.16a10.16,10.16,0,0,0,4-.82,10.38,10.38,0,0,0,3.31-2.21,10.59,10.59,0,0,0,2.2-3.25,10,10,0,0,0,.83-4.08,9.92,9.92,0,0,0-3-7.38,10.07,10.07,0,0,0-7.34-3H160.93v-3.64Zm-5.73,14a1.34,1.34,0,0,1-.08.52,1.66,1.66,0,0,1-.38.58,1.47,1.47,0,0,1-.54.33,1.26,1.26,0,0,1-.55.11h-30v21.28h37.26a1.35,1.35,0,0,1,1.15.45c.24.23.39.39.39,1.09a1.44,1.44,0,0,1-.07.53,1.94,1.94,0,0,1-.37.57,1.73,1.73,0,0,1-.55.33,1.19,1.19,0,0,1-.55.12h-38.8c-.76,0-.93-.17-1.15-.39s-.4-.4-.4-1.16V230.48c0-.6-.09-1.21-.15-1.82h40.51a1.32,1.32,0,0,1,1.15.45c.24.23.39.38.39,1.09a1.41,1.41,0,0,1-.07.52,1.81,1.81,0,0,1-.37.57,1.49,1.49,0,0,1-.55.34,1.32,1.32,0,0,1-.55.11H152.11V253h30a1.34,1.34,0,0,1,1.16.45C183.48,253.7,183.64,253.85,183.64,254.56Z"/><path class="cls-4" d="M194.26,241.76a12.44,12.44,0,0,0,6.66-6.59,12.69,12.69,0,0,0-2.67-13.93,12.29,12.29,0,0,0-8.88-3.61H145.83c-3,0-5,.46-6.29,1.43a5.84,5.84,0,0,0-2.36,4.13,13.76,13.76,0,0,0,.32,4.29A23.15,23.15,0,0,1,138,231v47.89a12.37,12.37,0,0,0,12.57,12.57h38.8a12.7,12.7,0,0,0,8.89-3.68,12.64,12.64,0,0,0,2.66-3.92A12.67,12.67,0,0,0,198.25,270a12.25,12.25,0,0,0-8.88-3.61h-3c.2-.07.39-.15.59-.24a12.44,12.44,0,0,0,6.66-6.59,12.57,12.57,0,0,0-7.08-16.76h2.8A12.27,12.27,0,0,0,194.26,241.76Zm-12.17,2.44a10.07,10.07,0,0,1,7.34,3,9.92,9.92,0,0,1,3,7.38,10,10,0,0,1-.83,4.08,10.59,10.59,0,0,1-2.2,3.25,10.38,10.38,0,0,1-3.31,2.21,10.16,10.16,0,0,1-4,.82H160.93v3.64h28.44a10.05,10.05,0,0,1,7.33,3A10.52,10.52,0,0,1,198.91,283a10.61,10.61,0,0,1-2.21,3.26,10.36,10.36,0,0,1-3.31,2.2,10.08,10.08,0,0,1-4,.83h-38.8a10.18,10.18,0,0,1-10.37-10.37V231a23.69,23.69,0,0,0-.55-4,11.34,11.34,0,0,1-.27-3.58,3.56,3.56,0,0,1,1.49-2.59c.88-.66,2.53-1,5-1h43.54a10.08,10.08,0,0,1,7.33,3,10.54,10.54,0,0,1,2.21,11.47,10.34,10.34,0,0,1-5.52,5.46,10.07,10.07,0,0,1-4,.82H160.93v3.64Z"/><path class="cls-4" d="M175.77,314.09a24.64,24.64,0,0,0-10-2h-17.7c.07.61.12,1.21.16,1.82v48.45c0,.76.17.93.39,1.15s.4.39,1.15.39h16A25.52,25.52,0,0,0,184,356.36a27.1,27.1,0,0,0,5.62-8.39,25.6,25.6,0,0,0,0-20,26.31,26.31,0,0,0-5.59-8.31A26.6,26.6,0,0,0,175.77,314.09ZM188.6,338a21.93,21.93,0,0,1-1.86,8.92,22.75,22.75,0,0,1-5,7.1,24.16,24.16,0,0,1-6.95,4.73,23,23,0,0,1-8.62,2.06l-5.55.32-9.33.55V314.58l9.16.36,5.63.22a23.85,23.85,0,0,1,15.66,6.67,22.72,22.72,0,0,1,5,7.22A22.34,22.34,0,0,1,188.6,338Z"/><path class="cls-9" d="M139.43,314.38v48a10.16,10.16,0,0,0,10.36,10.36h16a34.4,34.4,0,0,0,24.53-10.14,36.09,36.09,0,0,0,7.44-11.08,34.54,34.54,0,0,0,0-27A34.89,34.89,0,0,0,179.28,306a33.41,33.41,0,0,0-13.5-2.76H145.05c-2.42,0-4.07.33-5,1a3.6,3.6,0,0,0-1.48,2.59,11.13,11.13,0,0,0,.27,3.59A24.49,24.49,0,0,1,139.43,314.38ZM191.69,338a24.65,24.65,0,0,1-2,10,27.1,27.1,0,0,1-5.62,8.39,25.52,25.52,0,0,1-18.26,7.52h-16c-.75,0-.92-.17-1.15-.39s-.39-.39-.39-1.15V313.89c0-.61-.09-1.21-.16-1.82h17.7a24.64,24.64,0,0,1,10,2,26.6,26.6,0,0,1,8.3,5.59,26.31,26.31,0,0,1,5.59,8.31A24.58,24.58,0,0,1,191.69,338Z"/><path class="cls-9" d="M174.69,317.1a23.76,23.76,0,0,0-8.56-1.94l-5.63-.22-9.16-.36v47.08l9.33-.55,5.55-.32a23,23,0,0,0,8.62-2.06,24.16,24.16,0,0,0,6.95-4.73,22.75,22.75,0,0,0,5-7.1A21.93,21.93,0,0,0,188.6,338a22.34,22.34,0,0,0-1.84-8.93,22.72,22.72,0,0,0-5-7.22A24,24,0,0,0,174.69,317.1Zm1,30.58a15.75,15.75,0,0,1-4.47,3,14.34,14.34,0,0,1-5.4,1.27l-5.62.33V323.76l5.62.22a14.92,14.92,0,0,1,9.87,4.19,13.76,13.76,0,0,1,3,4.41,13.47,13.47,0,0,1,1.1,5.4,13.05,13.05,0,0,1-1.1,5.34A14,14,0,0,1,175.65,347.68Z"/><path class="cls-4" d="M178.68,332.58a13.76,13.76,0,0,0-3-4.41,14.92,14.92,0,0,0-9.87-4.19l-5.62-.22v28.55l5.62-.33a14.34,14.34,0,0,0,5.4-1.27,15.75,15.75,0,0,0,4.47-3,14,14,0,0,0,3-4.36,13.05,13.05,0,0,0,1.1-5.34A13.47,13.47,0,0,0,178.68,332.58Zm-2,9.85a11.59,11.59,0,0,1-2.55,3.67,13.69,13.69,0,0,1-3.84,2.6,12,12,0,0,1-4.57,1.07h0l-3.29.19V326.05l3.33.13a12.7,12.7,0,0,1,8.42,3.57,11.64,11.64,0,0,1,2.55,3.71,11.24,11.24,0,0,1,.92,4.52A10.68,10.68,0,0,1,176.66,342.43Z"/><path class="cls-4" d="M137.23,362.34a12.37,12.37,0,0,0,12.56,12.57h16a36.61,36.61,0,0,0,26.1-10.8,38.41,38.41,0,0,0,7.89-11.75,36.66,36.66,0,0,0,0-28.77A37.06,37.06,0,0,0,180.16,304a35.88,35.88,0,0,0-14.38-2.94H145.05c-3,0-5,.45-6.28,1.43a5.8,5.8,0,0,0-2.36,4.13,13.48,13.48,0,0,0,.32,4.29,22.64,22.64,0,0,1,.5,3.55Zm1.38-55.51a3.6,3.6,0,0,1,1.48-2.59c.89-.66,2.54-1,5-1h20.73a33.41,33.41,0,0,1,13.5,2.76,34.89,34.89,0,0,1,18.47,18.46,34.54,34.54,0,0,1,0,27,36.09,36.09,0,0,1-7.44,11.08,34.4,34.4,0,0,1-24.53,10.14h-16a10.16,10.16,0,0,1-10.36-10.36v-48a24.49,24.49,0,0,0-.55-4A11.13,11.13,0,0,1,138.61,306.83Z"/><path class="cls-4" d="M160.93,419.85h-8.82V398.57h37.26a1.32,1.32,0,0,0,.55-.11,1.94,1.94,0,0,0,.55-.34,1.81,1.81,0,0,0,.37-.57,1.41,1.41,0,0,0,.07-.52c0-.71-.15-.86-.39-1.09a1.32,1.32,0,0,0-1.15-.45H148.86c.06.61.12,1.22.15,1.82v48.44c0,.76.18.93.4,1.15s.39.4,1.15.4h38.8a1.19,1.19,0,0,0,.55-.12,1.73,1.73,0,0,0,.55-.33,1.94,1.94,0,0,0,.37-.57,1.44,1.44,0,0,0,.07-.53c0-.7-.15-.86-.39-1.09a1.35,1.35,0,0,0-1.15-.45H152.11V422.93h30a1.26,1.26,0,0,0,.55-.11,1.47,1.47,0,0,0,.54-.33,1.66,1.66,0,0,0,.38-.58,1.34,1.34,0,0,0,.08-.52c0-.71-.16-.86-.39-1.09a1.34,1.34,0,0,0-1.16-.45Z"/><path class="cls-9" d="M189.37,407.39a9.91,9.91,0,0,0,4-.83,10.36,10.36,0,0,0,3.31-2.2,10.57,10.57,0,0,0,2.21-3.25,10.31,10.31,0,0,0-9.54-14.44H145.83c-2.43,0-4.08.33-5,1a3.54,3.54,0,0,0-1.49,2.59,11.36,11.36,0,0,0,.27,3.58,23.54,23.54,0,0,1,.55,4v47.95a10.18,10.18,0,0,0,10.37,10.37h38.8a10.08,10.08,0,0,0,4-.83,10.36,10.36,0,0,0,3.31-2.2,10.61,10.61,0,0,0,2.21-3.26,10.52,10.52,0,0,0-2.21-11.46,10.05,10.05,0,0,0-7.33-3H160.93v-3.64h21.16a10.16,10.16,0,0,0,4-.82,10.38,10.38,0,0,0,3.31-2.21,10.72,10.72,0,0,0,2.2-3.25,10,10,0,0,0,.83-4.08,9.92,9.92,0,0,0-3-7.38,10.07,10.07,0,0,0-7.34-3H160.93v-3.64Zm-5.73,14a1.34,1.34,0,0,1-.08.52,1.66,1.66,0,0,1-.38.58,1.47,1.47,0,0,1-.54.33,1.26,1.26,0,0,1-.55.11h-30v21.28h37.26a1.35,1.35,0,0,1,1.15.45c.24.23.39.39.39,1.09a1.44,1.44,0,0,1-.07.53,1.94,1.94,0,0,1-.37.57,1.73,1.73,0,0,1-.55.33,1.19,1.19,0,0,1-.55.12h-38.8c-.76,0-.93-.17-1.15-.4s-.4-.39-.4-1.15V397.31c0-.6-.09-1.21-.15-1.82h40.51a1.32,1.32,0,0,1,1.15.45c.24.23.39.38.39,1.09a1.41,1.41,0,0,1-.07.52,1.81,1.81,0,0,1-.37.57,1.94,1.94,0,0,1-.55.34,1.32,1.32,0,0,1-.55.11H152.11v21.28h30a1.34,1.34,0,0,1,1.16.45C183.48,420.53,183.64,420.68,183.64,421.39Z"/><path class="cls-4" d="M194.26,408.59a12.44,12.44,0,0,0,6.66-6.59,12.52,12.52,0,0,0-11.55-17.54H145.83c-3,0-5,.46-6.29,1.44a5.8,5.8,0,0,0-2.36,4.12,13.76,13.76,0,0,0,.32,4.29,23.15,23.15,0,0,1,.5,3.55v47.89a12.37,12.37,0,0,0,12.57,12.57h38.8a12.57,12.57,0,0,0,11.55-7.6,12.67,12.67,0,0,0-2.67-13.92,12.25,12.25,0,0,0-8.88-3.61h-3c.2-.07.39-.15.59-.24a12.8,12.8,0,0,0,4-2.67,13.06,13.06,0,0,0,2.66-3.92,12.27,12.27,0,0,0,1-5,12.12,12.12,0,0,0-3.69-9,12.42,12.42,0,0,0-4.4-2.83h2.8A12.27,12.27,0,0,0,194.26,408.59ZM182.09,411a10.07,10.07,0,0,1,7.34,3,9.92,9.92,0,0,1,3,7.38,10,10,0,0,1-.83,4.08,10.72,10.72,0,0,1-2.2,3.25,10.38,10.38,0,0,1-3.31,2.21,10.16,10.16,0,0,1-4,.82H160.93v3.64h28.44a10.05,10.05,0,0,1,7.33,3,10.52,10.52,0,0,1,2.21,11.46,10.61,10.61,0,0,1-2.21,3.26,10.36,10.36,0,0,1-3.31,2.2,10.08,10.08,0,0,1-4,.83h-38.8a10.18,10.18,0,0,1-10.37-10.37V397.8a23.54,23.54,0,0,0-.55-4,11.36,11.36,0,0,1-.27-3.58,3.54,3.54,0,0,1,1.49-2.59c.88-.66,2.53-1,5-1h43.54a10.08,10.08,0,0,1,7.33,3,10.54,10.54,0,0,1,2.21,11.47,10.57,10.57,0,0,1-2.21,3.25,10.36,10.36,0,0,1-3.31,2.2,9.91,9.91,0,0,1-4,.83H160.93V411Z"/><polygon class="cls-4" points="166.44 182.69 168.49 184.6 180.16 195.52 180.16 195.52 184.35 195.41 170.06 183.72 168.8 182.69 166.44 182.69"/><path class="cls-10" d="M271.35,510.78a5.75,5.75,0,0,0-7.66,2.76h0a5.76,5.76,0,0,0,2.76,7.66l26.65,12.55a5.77,5.77,0,0,0,7.67-2.76h0a5.76,5.76,0,0,0-2.76-7.66Z"/><path class="cls-10" d="M264.33,525.71a5.76,5.76,0,0,0-7.67,2.76h0a5.76,5.76,0,0,0,2.76,7.66l26.65,12.55a5.77,5.77,0,0,0,7.67-2.76h0a5.76,5.76,0,0,0-2.76-7.66Z"/><path class="cls-10" d="M257.3,540.64a5.77,5.77,0,0,0-7.67,2.75h0a5.77,5.77,0,0,0,2.76,7.67l26.66,12.55a5.76,5.76,0,0,0,7.66-2.76h0a5.77,5.77,0,0,0-2.76-7.67Z"/><path class="cls-10" d="M65.71,510.78a5.76,5.76,0,0,1,7.67,2.76h0a5.76,5.76,0,0,1-2.76,7.66L44,533.75A5.77,5.77,0,0,1,36.3,531h0a5.76,5.76,0,0,1,2.76-7.66Z"/><path class="cls-10" d="M72.74,525.71a5.75,5.75,0,0,1,7.66,2.76h0a5.75,5.75,0,0,1-2.75,7.66L51,548.68a5.76,5.76,0,0,1-7.66-2.76h0a5.76,5.76,0,0,1,2.76-7.66Z"/><path class="cls-10" d="M79.77,540.64a5.75,5.75,0,0,1,7.66,2.75h0a5.77,5.77,0,0,1-2.75,7.67L58,563.61a5.76,5.76,0,0,1-7.66-2.76h0a5.76,5.76,0,0,1,2.76-7.67Z"/><path class="cls-11" d="M262.93,575.56a218.24,218.24,0,0,0-189.33,0l-35.36-73.1a299.47,299.47,0,0,1,260.05,0Z"/><path class="cls-4" d="M262.93,575.77a218.33,218.33,0,0,0-189.33,0L38.24,502.68a299.47,299.47,0,0,1,260.05,0Z"/><path class="cls-5" d="M168.27,479a290.09,290.09,0,0,1,122,26.54l-30.14,62.31a224.45,224.45,0,0,0-183.68,0L46.28,505.52a290.1,290.1,0,0,1,122-26.54m0-6a296.15,296.15,0,0,0-130,29.7L73.6,575.77a218.33,218.33,0,0,1,189.33,0l35.36-73.09a296.11,296.11,0,0,0-130-29.7Z"/><path class="cls-12" d="M262.93,575.77a218.33,218.33,0,0,0-189.33,0L38.24,502.68a299.47,299.47,0,0,1,260.05,0Z"/><rect class="cls-5" x="86.41" y="559.5" width="23" height="20.25" transform="translate(-185.05 65.65) rotate(-19.56)"/><path class="cls-13" d="M175.63,535a11.27,11.27,0,0,0-4.82.61l-54.85,15q-1.5-3.76-3.4-8.86t-3.93-10.91q-2-5.8-4-12t-3.71-12.35q-1.71-6.09-2.9-11.69a95.12,95.12,0,0,1-1.66-10.11,30.19,30.19,0,0,1,0-7.65c.33-2.08,1.06-3.51,2.2-4.27a16.67,16.67,0,0,0,4.56-3.87c.68-1,.75-1.75.22-2.15s-1.58-.46-3.13-.22a19.79,19.79,0,0,0-5.41,1.88c-1,.5-2.06,1.07-3.23,1.7a16.71,16.71,0,0,0-3.47,2.56A17.29,17.29,0,0,0,85,476.74,19.78,19.78,0,0,0,82.87,483a43.36,43.36,0,0,0-.54,9,70.44,70.44,0,0,0,1.61,12.28,161.31,161.31,0,0,0,4.37,16.21q2.89,9.12,7.69,20.74c1.11,2.75,2,5.23,2.68,7.44s1.34,4.29,2,6.22l-6.14,1.68a26.93,26.93,0,0,0-8.35,3.67,17,17,0,0,0-5,5A12.69,12.69,0,0,0,79.36,571a14.83,14.83,0,0,0,.73,5.85,17.16,17.16,0,0,0,2.9,5.33,17.92,17.92,0,0,0,4.72,4.2,19.41,19.41,0,0,0,6.12,2.43,18.22,18.22,0,0,0,7.14,0,29.67,29.67,0,0,0,11.83-4.35,18,18,0,0,0,6.48-7.56,20.43,20.43,0,0,0,1.47-10.13,42.46,42.46,0,0,0-3.15-12.13l54.34-14.88a9.23,9.23,0,0,0,3.33-1.61,3.91,3.91,0,0,0,1.56-1.94C176.94,535.63,176.54,535.23,175.63,535Zm-72.1,35.38a6.37,6.37,0,0,1-1.82,3.4,9.09,9.09,0,0,1-3.9,2,6.44,6.44,0,0,1-4.16-.07,6.69,6.69,0,0,1-2.85-2.18,8,8,0,0,1-1.4-3.39,8.56,8.56,0,0,1,.23-3.83,8.4,8.4,0,0,1,2.05-3.46,8.63,8.63,0,0,1,4-2.24l6.26-1.71a56,56,0,0,1,1.56,6.57A13,13,0,0,1,103.53,570.39Z"/><path class="cls-13" d="M101.76,466.37a2.72,2.72,0,0,1,1.57.36c.53.4.46,1.11-.22,2.15a16.67,16.67,0,0,1-4.56,3.87c-1.14.76-1.87,2.19-2.2,4.27a30.19,30.19,0,0,0,0,7.65A95.12,95.12,0,0,0,98,494.78q1.2,5.6,2.9,11.69t3.71,12.35q2,6.24,4,12t3.93,10.91q1.91,5.09,3.4,8.86l54.85-15a16.47,16.47,0,0,1,4-.7,3.55,3.55,0,0,1,.86.09c.91.22,1.31.62,1.2,1.19a3.91,3.91,0,0,1-1.56,1.94,9.23,9.23,0,0,1-3.33,1.61L117.6,554.63a42.46,42.46,0,0,1,3.15,12.13,20.43,20.43,0,0,1-1.47,10.13,18,18,0,0,1-6.48,7.56A29.67,29.67,0,0,1,101,588.8a19.71,19.71,0,0,1-3.6.34,16.48,16.48,0,0,1-3.54-.37,19.41,19.41,0,0,1-6.12-2.43,17.92,17.92,0,0,1-4.72-4.2,17.16,17.16,0,0,1-2.9-5.33,14.83,14.83,0,0,1-.73-5.85,12.69,12.69,0,0,1,1.88-5.77,17,17,0,0,1,5-5,26.93,26.93,0,0,1,8.35-3.67l6.14-1.68q-1-2.9-2-6.22c-.67-2.21-1.57-4.69-2.68-7.44q-4.78-11.61-7.69-20.74a161.31,161.31,0,0,1-4.37-16.21,70.44,70.44,0,0,1-1.61-12.28,43.36,43.36,0,0,1,.54-9A19.78,19.78,0,0,1,85,476.74a17.29,17.29,0,0,1,3.13-4.09,16.71,16.71,0,0,1,3.47-2.56c1.17-.63,2.25-1.2,3.23-1.7a19.79,19.79,0,0,1,5.41-1.88,10.68,10.68,0,0,1,1.56-.14M95.69,576.11a8.3,8.3,0,0,0,2.12-.31,9.09,9.09,0,0,0,3.9-2,6.37,6.37,0,0,0,1.82-3.4,13,13,0,0,0,0-4.9,56,56,0,0,0-1.56-6.57l-6.26,1.71a8.63,8.63,0,0,0-4,2.24,8.4,8.4,0,0,0-2.05,3.46,8.56,8.56,0,0,0-.23,3.83,7.91,7.91,0,0,0,1.4,3.38,6.64,6.64,0,0,0,2.85,2.19,5.48,5.48,0,0,0,2,.38m6.07-110.74a11.21,11.21,0,0,0-1.71.15,20.79,20.79,0,0,0-5.7,2c-1,.49-2,1.05-3.27,1.71a18.08,18.08,0,0,0-3.68,2.71,18.69,18.69,0,0,0-3.3,4.32,20.7,20.7,0,0,0-2.22,6.55,44.82,44.82,0,0,0-.55,9.17A72.48,72.48,0,0,0,83,504.42a164.43,164.43,0,0,0,4.39,16.3c1.93,6.07,4.53,13.08,7.73,20.82,1.09,2.71,2,5.19,2.64,7.36q.84,2.76,1.68,5.24l-5.12,1.39a28.54,28.54,0,0,0-8.65,3.81,18,18,0,0,0-5.24,5.33,13.86,13.86,0,0,0-2,6.21,16.09,16.09,0,0,0,.78,6.25,18.37,18.37,0,0,0,3.07,5.63,18.84,18.84,0,0,0,5,4.43,20.52,20.52,0,0,0,6.43,2.56,17.9,17.9,0,0,0,3.76.39,20.73,20.73,0,0,0,3.78-.36,30.87,30.87,0,0,0,12.22-4.51,18.9,18.9,0,0,0,6.82-8,21.34,21.34,0,0,0,1.55-10.62,42.35,42.35,0,0,0-2.8-11.37l53.27-14.58a10.53,10.53,0,0,0,3.68-1.79,4.71,4.71,0,0,0,1.92-2.54c.08-.42.19-1.83-1.95-2.35a4.43,4.43,0,0,0-1.09-.12,16.65,16.65,0,0,0-4.22.74l-54,14.78c-.9-2.29-1.91-4.93-3.06-8-1.28-3.43-2.6-7.09-3.92-10.89s-2.69-7.84-4-12-2.59-8.28-3.71-12.31-2.09-7.94-2.88-11.63a93.42,93.42,0,0,1-1.64-10,29.57,29.57,0,0,1,0-7.39c.28-1.79.87-3,1.76-3.6a17.13,17.13,0,0,0,4.84-4.15c1.34-2.05.56-3.07,0-3.5a3.54,3.54,0,0,0-2.16-.56ZM95.69,575.11A4.46,4.46,0,0,1,94,574.8,5.49,5.49,0,0,1,91.61,573a6.7,6.7,0,0,1-1.22-3,7.58,7.58,0,0,1,.2-3.38,7.46,7.46,0,0,1,1.81-3.05,7.56,7.56,0,0,1,3.54-2l5.31-1.46a54,54,0,0,1,1.27,5.51,12.61,12.61,0,0,1,0,4.54,5.4,5.4,0,0,1-1.55,2.88,8,8,0,0,1-3.46,1.76,7.18,7.18,0,0,1-1.86.28Z"/><path class="cls-13" d="M125.46,493.5a7.39,7.39,0,0,0,1.83,2.13,7.91,7.91,0,0,0,2.52,1.29,7.16,7.16,0,0,0,2.91.28,7.3,7.3,0,0,0,6.3-5.15,6.71,6.71,0,0,0,.28-2.86,7.35,7.35,0,0,0-8.14-6.58,7.15,7.15,0,0,0-2.78.89,7.71,7.71,0,0,0-2.19,1.8,7,7,0,0,0-1.33,2.49,7.2,7.2,0,0,0-.28,3A7,7,0,0,0,125.46,493.5Z"/><path class="cls-13" d="M132,482.57a7.16,7.16,0,0,1,2.12.31,7.34,7.34,0,0,1,5.18,6.31,6.71,6.71,0,0,1-.28,2.86,7.43,7.43,0,0,1-1.3,2.46,7.45,7.45,0,0,1-5,2.69,7.09,7.09,0,0,1-.79,0,7,7,0,0,1-2.12-.32,7.91,7.91,0,0,1-2.52-1.29,7.39,7.39,0,0,1-1.83-2.13,7,7,0,0,1-.88-2.74,7.2,7.2,0,0,1,.28-3,7,7,0,0,1,1.33-2.49,7.71,7.71,0,0,1,2.19-1.8,7.15,7.15,0,0,1,2.78-.89,7.87,7.87,0,0,1,.84,0m0-1a7.66,7.66,0,0,0-.95.05,8.2,8.2,0,0,0-3.16,1,8.61,8.61,0,0,0-2.47,2,8.1,8.1,0,0,0-1.52,2.84,8.4,8.4,0,0,0-.31,3.36,8.14,8.14,0,0,0,3.09,5.55,8.81,8.81,0,0,0,2.84,1.47,8.28,8.28,0,0,0,2.41.36c.29,0,.59,0,.89,0a8.44,8.44,0,0,0,3.23-1,8.27,8.27,0,0,0,3.92-4.82,7.88,7.88,0,0,0,.33-3.28,8.5,8.5,0,0,0-1-3.23,8.34,8.34,0,0,0-7.28-4.28Z"/><path class="cls-13" d="M265.23,536.54a1.82,1.82,0,0,0-1.22-1.09,2.86,2.86,0,0,0-2.23.29,39.61,39.61,0,0,1-5.19,1.93,23.67,23.67,0,0,1-5,.89,24.89,24.89,0,0,1-5.15-.17,33.27,33.27,0,0,1-5.62-1.26,26.19,26.19,0,0,1-3.88-1.41,28.83,28.83,0,0,1-3.23-1.75,29.82,29.82,0,0,0,5.77-1.17,21.07,21.07,0,0,0,4.36-1.91,11.5,11.5,0,0,0,2.91-2.36,7.42,7.42,0,0,0,1.47-2.57,6.68,6.68,0,0,0,.17-3.38,8.28,8.28,0,0,0-1.59-3.31,12.79,12.79,0,0,0-3.34-2.94,21.12,21.12,0,0,0-5-2.23,31.77,31.77,0,0,0-9.31-1.56,24.71,24.71,0,0,0-7.78,1.09,16.81,16.81,0,0,0-5.83,3.15A12.48,12.48,0,0,0,212,521.4a10.11,10.11,0,0,0-.45,1.27l-.41.24a5.87,5.87,0,0,1-1.62.64,4.4,4.4,0,0,1-1.21.09l-1-.09a3.63,3.63,0,0,1-1.9-.68,6.61,6.61,0,0,1-1.44-1.49,21.78,21.78,0,0,0,2.11-4.84,20.15,20.15,0,0,0,.63-3.53,10.17,10.17,0,0,0-.19-3.17,5.06,5.06,0,0,0-1.23-2.39,3.71,3.71,0,0,0-2.51-1.09,4.94,4.94,0,0,0-3.3,1.22,11.28,11.28,0,0,0-3.07,3.58,12,12,0,0,0-1.48,5.12,9.89,9.89,0,0,0,1.55,5.83,12.37,12.37,0,0,1-2.24,1.83,3,3,0,0,1-1.61.58c-.47,0-1-.56-1.69-1.55a42.39,42.39,0,0,1-2.16-3.7q-1.19-2.22-2.49-4.81c-.88-1.72-1.77-3.33-2.69-4.82a26.65,26.65,0,0,0-2.71-3.75,4.11,4.11,0,0,0-2.56-1.62,5.73,5.73,0,0,0-2.92.67,22.75,22.75,0,0,0-3.4,2q-1.77,1.26-3.6,2.82t-3.45,3.1c-1.09,1-2.07,2-2.95,2.84a23.94,23.94,0,0,1-2.16,2,2,2,0,0,0-.85,1.65,2.39,2.39,0,0,0,.23.9q-.89.74-1.77,1.35a14.22,14.22,0,0,1-2.83,1.54,5,5,0,0,1-2.24.44,3.66,3.66,0,0,1-2.1-1.58c-.73-.94-1.54-2.07-2.42-3.39s-1.8-2.74-2.77-4.25a35.89,35.89,0,0,0-3.08-4.14,16,16,0,0,0-3.46-3,5.77,5.77,0,0,0-3.82-.93,4.43,4.43,0,0,0-2.55,1.22,20.59,20.59,0,0,0-2.67,3.06c-1,1.32-2.17,2.93-3.54,4.81s-3.07,4-5.12,6.49a3.65,3.65,0,0,0-1,2.19,2,2,0,0,0,.59,1.51A2.1,2.1,0,0,0,122,526a3,3,0,0,0,1.92-1q1.77-1.75,2.94-3.06a4.72,4.72,0,0,1,2.7-1.59c.34,0,.76.31,1.25,1s1.07,1.64,1.73,2.72,1.41,2.25,2.27,3.51a21.78,21.78,0,0,0,2.88,3.45,14.09,14.09,0,0,0,3.53,2.52,7.61,7.61,0,0,0,4.32.72,17.22,17.22,0,0,0,6-1.89,34.16,34.16,0,0,0,5.8-3.75,46.14,46.14,0,0,0,8.88-9.5,4.07,4.07,0,0,0,.44-.77l.41-.23a8,8,0,0,1,4.35-1q.71.06,1.68,1.32c.64.84,1.37,1.87,2.18,3.09s1.67,2.54,2.59,4a36.77,36.77,0,0,0,3,4,22.14,22.14,0,0,0,3.35,3.19,7,7,0,0,0,3.62,1.48,6.56,6.56,0,0,0,2.84-.48,17.14,17.14,0,0,0,3.2-1.65,24.09,24.09,0,0,0,3.32-2.58,38,38,0,0,0,3.18-3.28,11.58,11.58,0,0,0,2.4,1.28,10.36,10.36,0,0,0,3,.68,19,19,0,0,0,2.8,0,11.48,11.48,0,0,0,2.55-.47l.23-.08a12.63,12.63,0,0,0,2.31,4.86,23.18,23.18,0,0,0,6.08,5.38,41.52,41.52,0,0,0,10.11,4.46,49.22,49.22,0,0,0,11.19,2.25,42.84,42.84,0,0,0,9.06-.29,33.1,33.1,0,0,0,7.24-1.86c2.12-.84,4-1.66,5.72-2.44a4,4,0,0,0,1.91-1.79A2.39,2.39,0,0,0,265.23,536.54Zm-36.59-7.47a8.82,8.82,0,0,1-1.55-4.56,5.27,5.27,0,0,1,1.24-3.66,6.18,6.18,0,0,1,3.75-1.9,13.07,13.07,0,0,1,6.12.78,4.92,4.92,0,0,1,3.2,2.59,3.15,3.15,0,0,1-.6,3.25,9.21,9.21,0,0,1-4.29,2.67A20.33,20.33,0,0,1,228.64,529.07Z"/><path class="cls-13" d="M178,504.26h.33a4.11,4.11,0,0,1,2.56,1.62,26.65,26.65,0,0,1,2.71,3.75c.92,1.49,1.81,3.1,2.69,4.82s1.7,3.33,2.49,4.81a42.39,42.39,0,0,0,2.16,3.7c.65,1,1.22,1.51,1.69,1.55h.09a3.17,3.17,0,0,0,1.52-.58,12.37,12.37,0,0,0,2.24-1.83,9.89,9.89,0,0,1-1.55-5.83,12,12,0,0,1,1.48-5.12,11.28,11.28,0,0,1,3.07-3.58,5.25,5.25,0,0,1,3-1.23h.26a3.71,3.71,0,0,1,2.51,1.09,5.06,5.06,0,0,1,1.23,2.39,10.17,10.17,0,0,1,.19,3.17,20.15,20.15,0,0,1-.63,3.53,21.78,21.78,0,0,1-2.11,4.84,6.61,6.61,0,0,0,1.44,1.49,3.63,3.63,0,0,0,1.9.68l1,.09h.26a4.8,4.8,0,0,0,.95-.1,5.87,5.87,0,0,0,1.62-.64l.41-.24a10.11,10.11,0,0,1,.45-1.27,12.48,12.48,0,0,1,3.51-4.62,16.81,16.81,0,0,1,5.83-3.15,24.64,24.64,0,0,1,7.62-1.09h.16a31.77,31.77,0,0,1,9.31,1.56,21.12,21.12,0,0,1,5,2.23,12.79,12.79,0,0,1,3.34,2.94,8.28,8.28,0,0,1,1.59,3.31,6.68,6.68,0,0,1-.17,3.38,7.42,7.42,0,0,1-1.47,2.57,11.5,11.5,0,0,1-2.91,2.36,21.07,21.07,0,0,1-4.36,1.91,29.82,29.82,0,0,1-5.77,1.17,28.83,28.83,0,0,0,3.23,1.75,26.19,26.19,0,0,0,3.88,1.41,33.27,33.27,0,0,0,5.62,1.26,25.37,25.37,0,0,0,3.44.23q.87,0,1.71-.06a23.67,23.67,0,0,0,5-.89,39.61,39.61,0,0,0,5.19-1.93,3.51,3.51,0,0,1,1.53-.41,2,2,0,0,1,.7.12,1.82,1.82,0,0,1,1.22,1.09,2.39,2.39,0,0,1-.18,1.78,4,4,0,0,1-1.91,1.79c-1.69.78-3.6,1.6-5.72,2.44a33.1,33.1,0,0,1-7.24,1.86,37.64,37.64,0,0,1-5.69.4c-1.08,0-2.21,0-3.37-.11a49.22,49.22,0,0,1-11.19-2.25A41.52,41.52,0,0,1,219.82,538a23.18,23.18,0,0,1-6.08-5.38,12.63,12.63,0,0,1-2.31-4.86l-.23.08a11.48,11.48,0,0,1-2.55.47c-.35,0-.71,0-1.07,0-.56,0-1.13,0-1.73-.08a10.36,10.36,0,0,1-3-.68,11.58,11.58,0,0,1-2.4-1.28,38,38,0,0,1-3.18,3.28,24.09,24.09,0,0,1-3.32,2.58,17.14,17.14,0,0,1-3.2,1.65,6.89,6.89,0,0,1-2.42.5l-.42,0a7,7,0,0,1-3.62-1.48,22.14,22.14,0,0,1-3.35-3.19,36.77,36.77,0,0,1-3-4q-1.38-2.13-2.59-4c-.81-1.22-1.54-2.25-2.18-3.09s-1.21-1.28-1.68-1.32l-.59,0a8.13,8.13,0,0,0-3.76,1l-.41.23a4.07,4.07,0,0,1-.44.77,46.14,46.14,0,0,1-8.88,9.5,34.16,34.16,0,0,1-5.8,3.75,17.22,17.22,0,0,1-6,1.89c-.33,0-.65,0-1,0a7.27,7.27,0,0,1-3.35-.77,14.09,14.09,0,0,1-3.53-2.52,21.78,21.78,0,0,1-2.88-3.45c-.86-1.26-1.61-2.43-2.27-3.51s-1.24-2-1.73-2.72-.87-1-1.2-1h0a4.72,4.72,0,0,0-2.7,1.59q-1.17,1.31-2.94,3.06a3,3,0,0,1-1.92,1h-.14a2,2,0,0,1-1.41-.49,2,2,0,0,1-.59-1.51,3.65,3.65,0,0,1,1-2.19q3.08-3.66,5.12-6.49c1.37-1.88,2.54-3.49,3.54-4.81a20.59,20.59,0,0,1,2.67-3.06,4.58,4.58,0,0,1,3.17-1.26,5.87,5.87,0,0,1,3.2,1,16,16,0,0,1,3.46,3,35.89,35.89,0,0,1,3.08,4.14q1.46,2.26,2.77,4.25c.88,1.32,1.69,2.45,2.42,3.39a3.66,3.66,0,0,0,2.1,1.58h.29a5.62,5.62,0,0,0,2-.45,14.22,14.22,0,0,0,2.83-1.54q.88-.62,1.77-1.35a2.39,2.39,0,0,1-.23-.9,2,2,0,0,1,.85-1.65,23.94,23.94,0,0,0,2.16-2c.88-.88,1.86-1.83,2.95-2.84s2.23-2.05,3.45-3.1,2.42-2,3.6-2.82a22.75,22.75,0,0,1,3.4-2,6.13,6.13,0,0,1,2.59-.68m52.48,24.86a18,18,0,0,0,6-.88,9.21,9.21,0,0,0,4.29-2.67,3.15,3.15,0,0,0,.6-3.25,4.92,4.92,0,0,0-3.2-2.59,15.54,15.54,0,0,0-4.75-.89,8.54,8.54,0,0,0-1.37.11,6.18,6.18,0,0,0-3.75,1.9,5.27,5.27,0,0,0-1.24,3.66,8.82,8.82,0,0,0,1.55,4.56c.63,0,1.24,0,1.83,0M178,503.26h0a7,7,0,0,0-3,.78,24.32,24.32,0,0,0-3.55,2.1c-1.2.85-2.43,1.82-3.67,2.88s-2.39,2.1-3.49,3.12-2.09,2-3,2.87a21.78,21.78,0,0,1-2.06,1.88A3,3,0,0,0,158,519.4a2.74,2.74,0,0,0,.07.5c-.4.31-.79.6-1.17.86a13.12,13.12,0,0,1-2.64,1.44,4.44,4.44,0,0,1-1.58.38h-.17c-.2,0-.68-.23-1.43-1.19s-1.52-2-2.37-3.34-1.82-2.74-2.77-4.22a35.44,35.44,0,0,0-3.17-4.26,16.55,16.55,0,0,0-3.68-3.22,6.94,6.94,0,0,0-3.73-1.12c-.24,0-.48,0-.73,0a5.55,5.55,0,0,0-3.11,1.47,23.31,23.31,0,0,0-2.81,3.21c-.95,1.27-2.11,2.85-3.54,4.83s-3,4-5.07,6.43a4.58,4.58,0,0,0-1.21,2.84,2.94,2.94,0,0,0,.91,2.24,3,3,0,0,0,2.09.75h.18a3.82,3.82,0,0,0,2.59-1.28c1.17-1.16,2.17-2.2,3-3.09a3.85,3.85,0,0,1,1.93-1.23,3.58,3.58,0,0,1,.45.57c.48.71,1.05,1.61,1.7,2.68s1.46,2.31,2.3,3.55a22.8,22.8,0,0,0,3,3.6,15.13,15.13,0,0,0,3.79,2.71,8.35,8.35,0,0,0,3.79.87,9.91,9.91,0,0,0,1.08-.06,18.11,18.11,0,0,0,6.38-2,35.36,35.36,0,0,0,6-3.86,45.53,45.53,0,0,0,5.16-4.82,43.23,43.23,0,0,0,3.92-4.9,3.42,3.42,0,0,0,.38-.62l.11,0a7.1,7.1,0,0,1,3.3-.88l.5,0h0s.32.08,1,.93,1.35,1.84,2.13,3,1.68,2.53,2.59,4a37.1,37.1,0,0,0,3.07,4.1,21.76,21.76,0,0,0,3.5,3.33,7.85,7.85,0,0,0,4.13,1.68l.51,0a8,8,0,0,0,2.78-.56,18.52,18.52,0,0,0,3.39-1.74,26,26,0,0,0,3.44-2.69c.93-.85,1.83-1.76,2.69-2.71a13.8,13.8,0,0,0,1.85.9,11.89,11.89,0,0,0,3.32.75c.62,0,1.23.08,1.81.08.38,0,.77,0,1.14,0a11.23,11.23,0,0,0,2-.3,14.27,14.27,0,0,0,2.22,4.21,24.17,24.17,0,0,0,6.34,5.63,42.34,42.34,0,0,0,10.35,4.57,50.81,50.81,0,0,0,11.43,2.3c1.18.07,2.33.11,3.43.11a39.65,39.65,0,0,0,5.84-.41,34,34,0,0,0,7.46-1.92c2.14-.85,4.08-1.68,5.77-2.47a5.07,5.07,0,0,0,2.41-2.28,3.39,3.39,0,0,0,.2-2.53,2.76,2.76,0,0,0-1.83-1.7,3.22,3.22,0,0,0-1-.17,4.47,4.47,0,0,0-2,.51,38.44,38.44,0,0,1-5,1.87,24.36,24.36,0,0,1-4.79.86c-.54,0-1.09,0-1.64,0a25,25,0,0,1-3.31-.22,32.52,32.52,0,0,1-5.45-1.23,23.85,23.85,0,0,1-3.76-1.36l-.6-.29a24.63,24.63,0,0,0,3-.77,21.79,21.79,0,0,0,4.57-2,12.52,12.52,0,0,0,3.16-2.57,8.45,8.45,0,0,0,1.67-2.92,7.74,7.74,0,0,0,.19-3.88,9.18,9.18,0,0,0-1.78-3.72,13.68,13.68,0,0,0-3.59-3.17,21.81,21.81,0,0,0-5.26-2.35,32.94,32.94,0,0,0-9.59-1.6H229a26.05,26.05,0,0,0-7.93,1.13,18,18,0,0,0-6.17,3.35,13.6,13.6,0,0,0-3.78,5,9.84,9.84,0,0,0-.37,1l0,0a4.74,4.74,0,0,1-1.33.54,4.47,4.47,0,0,1-.76.08h-.18l-.53,0-.5,0a2.66,2.66,0,0,1-1.38-.49,5.12,5.12,0,0,1-.84-.78,22,22,0,0,0,1.87-4.47,21.27,21.27,0,0,0,.66-3.72,11.32,11.32,0,0,0-.2-3.49,6.15,6.15,0,0,0-1.48-2.84,4.75,4.75,0,0,0-3.16-1.41h-.34a6.23,6.23,0,0,0-3.63,1.42,12.34,12.34,0,0,0-3.35,3.9,12.93,12.93,0,0,0-1.61,5.53,10.55,10.55,0,0,0,1.3,5.72,10.53,10.53,0,0,1-1.51,1.17,2.38,2.38,0,0,1-1,.43s-.32-.15-1-1.1-1.34-2.17-2.11-3.62-1.62-3.08-2.48-4.79-1.81-3.4-2.72-4.89a28.92,28.92,0,0,0-2.81-3.89,5,5,0,0,0-3.24-2l-.41,0Zm51.23,24.83a7.46,7.46,0,0,1-1.13-3.6,4.27,4.27,0,0,1,1-3,5.22,5.22,0,0,1,3.16-1.56,7.56,7.56,0,0,1,1.2-.1,14.34,14.34,0,0,1,4.43.84,4,4,0,0,1,2.59,2A2.17,2.17,0,0,1,240,525a8.38,8.38,0,0,1-3.84,2.35,17.27,17.27,0,0,1-5.7.82l-1.25,0Z"/><path class="cls-3" d="M175.63,535a11.27,11.27,0,0,0-4.82.61l-54.85,15q-1.5-3.76-3.4-8.86t-3.93-10.91q-2-5.8-4-12t-3.71-12.35q-1.71-6.09-2.9-11.69a95.12,95.12,0,0,1-1.66-10.11,30.19,30.19,0,0,1,0-7.65c.33-2.08,1.06-3.51,2.2-4.27a16.67,16.67,0,0,0,4.56-3.87c.68-1,.75-1.75.22-2.15s-1.58-.46-3.13-.22a19.79,19.79,0,0,0-5.41,1.88c-1,.5-2.06,1.07-3.23,1.7a16.71,16.71,0,0,0-3.47,2.56A17.29,17.29,0,0,0,85,476.74,19.78,19.78,0,0,0,82.87,483a43.36,43.36,0,0,0-.54,9,70.44,70.44,0,0,0,1.61,12.28,161.31,161.31,0,0,0,4.37,16.21q2.89,9.12,7.69,20.74c1.11,2.75,2,5.23,2.68,7.44s1.34,4.29,2,6.22l-6.14,1.68a26.93,26.93,0,0,0-8.35,3.67,17,17,0,0,0-5,5A12.69,12.69,0,0,0,79.36,571a14.83,14.83,0,0,0,.73,5.85,17.16,17.16,0,0,0,2.9,5.33,17.92,17.92,0,0,0,4.72,4.2,19.41,19.41,0,0,0,6.12,2.43,18.22,18.22,0,0,0,7.14,0,29.67,29.67,0,0,0,11.83-4.35,18,18,0,0,0,6.48-7.56,20.43,20.43,0,0,0,1.47-10.13,42.46,42.46,0,0,0-3.15-12.13l54.34-14.88a9.23,9.23,0,0,0,3.33-1.61,3.91,3.91,0,0,0,1.56-1.94C176.94,535.63,176.54,535.23,175.63,535Zm-72.1,35.38a6.37,6.37,0,0,1-1.82,3.4,9.09,9.09,0,0,1-3.9,2,6.44,6.44,0,0,1-4.16-.07,6.69,6.69,0,0,1-2.85-2.18,8,8,0,0,1-1.4-3.39,8.56,8.56,0,0,1,.23-3.83,8.4,8.4,0,0,1,2.05-3.46,8.63,8.63,0,0,1,4-2.24l6.26-1.71a56,56,0,0,1,1.56,6.57A13,13,0,0,1,103.53,570.39Z"/><path class="cls-3" d="M101.76,466.37a2.72,2.72,0,0,1,1.57.36c.53.4.46,1.11-.22,2.15a16.67,16.67,0,0,1-4.56,3.87c-1.14.76-1.87,2.19-2.2,4.27a30.19,30.19,0,0,0,0,7.65A95.12,95.12,0,0,0,98,494.78q1.2,5.6,2.9,11.69t3.71,12.35q2,6.24,4,12t3.93,10.91q1.91,5.09,3.4,8.86l54.85-15a16.47,16.47,0,0,1,4-.7,3.55,3.55,0,0,1,.86.09c.91.22,1.31.62,1.2,1.19a3.91,3.91,0,0,1-1.56,1.94,9.23,9.23,0,0,1-3.33,1.61L117.6,554.63a42.46,42.46,0,0,1,3.15,12.13,20.43,20.43,0,0,1-1.47,10.13,18,18,0,0,1-6.48,7.56A29.67,29.67,0,0,1,101,588.8a19.71,19.71,0,0,1-3.6.34,16.48,16.48,0,0,1-3.54-.37,19.41,19.41,0,0,1-6.12-2.43,17.92,17.92,0,0,1-4.72-4.2,17.16,17.16,0,0,1-2.9-5.33,14.83,14.83,0,0,1-.73-5.85,12.69,12.69,0,0,1,1.88-5.77,17,17,0,0,1,5-5,26.93,26.93,0,0,1,8.35-3.67l6.14-1.68q-1-2.9-2-6.22c-.67-2.21-1.57-4.69-2.68-7.44q-4.78-11.61-7.69-20.74a161.31,161.31,0,0,1-4.37-16.21,70.44,70.44,0,0,1-1.61-12.28,43.36,43.36,0,0,1,.54-9A19.78,19.78,0,0,1,85,476.74a17.29,17.29,0,0,1,3.13-4.09,16.71,16.71,0,0,1,3.47-2.56c1.17-.63,2.25-1.2,3.23-1.7a19.79,19.79,0,0,1,5.41-1.88,10.68,10.68,0,0,1,1.56-.14M95.69,576.11a8.3,8.3,0,0,0,2.12-.31,9.09,9.09,0,0,0,3.9-2,6.37,6.37,0,0,0,1.82-3.4,13,13,0,0,0,0-4.9,56,56,0,0,0-1.56-6.57l-6.26,1.71a8.63,8.63,0,0,0-4,2.24,8.4,8.4,0,0,0-2.05,3.46,8.56,8.56,0,0,0-.23,3.83,7.91,7.91,0,0,0,1.4,3.38,6.64,6.64,0,0,0,2.85,2.19,5.48,5.48,0,0,0,2,.38m6.07-110.74a11.21,11.21,0,0,0-1.71.15,20.79,20.79,0,0,0-5.7,2c-1,.49-2,1.05-3.27,1.71a18.08,18.08,0,0,0-3.68,2.71,18.69,18.69,0,0,0-3.3,4.32,20.7,20.7,0,0,0-2.22,6.55,44.82,44.82,0,0,0-.55,9.17A72.48,72.48,0,0,0,83,504.42a164.43,164.43,0,0,0,4.39,16.3c1.93,6.07,4.53,13.08,7.73,20.82,1.09,2.71,2,5.19,2.64,7.36q.84,2.76,1.68,5.24l-5.12,1.39a28.54,28.54,0,0,0-8.65,3.81,18,18,0,0,0-5.24,5.33,13.86,13.86,0,0,0-2,6.21,16.09,16.09,0,0,0,.78,6.25,18.37,18.37,0,0,0,3.07,5.63,18.84,18.84,0,0,0,5,4.43,20.52,20.52,0,0,0,6.43,2.56,17.9,17.9,0,0,0,3.76.39,20.73,20.73,0,0,0,3.78-.36,30.87,30.87,0,0,0,12.22-4.51,18.9,18.9,0,0,0,6.82-8,21.34,21.34,0,0,0,1.55-10.62,42.35,42.35,0,0,0-2.8-11.37l53.27-14.58a10.53,10.53,0,0,0,3.68-1.79,4.71,4.71,0,0,0,1.92-2.54c.08-.42.19-1.83-1.95-2.35a4.43,4.43,0,0,0-1.09-.12,16.65,16.65,0,0,0-4.22.74l-54,14.78c-.9-2.29-1.91-4.93-3.06-8-1.28-3.43-2.6-7.09-3.92-10.89s-2.69-7.84-4-12-2.59-8.28-3.71-12.31-2.09-7.94-2.88-11.63a93.42,93.42,0,0,1-1.64-10,29.57,29.57,0,0,1,0-7.39c.28-1.79.87-3,1.76-3.6a17.13,17.13,0,0,0,4.84-4.15c1.34-2.05.56-3.07,0-3.5a3.54,3.54,0,0,0-2.16-.56ZM95.69,575.11A4.46,4.46,0,0,1,94,574.8,5.49,5.49,0,0,1,91.61,573a6.7,6.7,0,0,1-1.22-3,7.58,7.58,0,0,1,.2-3.38,7.46,7.46,0,0,1,1.81-3.05,7.56,7.56,0,0,1,3.54-2l5.31-1.46a54,54,0,0,1,1.27,5.51,12.61,12.61,0,0,1,0,4.54,5.4,5.4,0,0,1-1.55,2.88,8,8,0,0,1-3.46,1.76,7.18,7.18,0,0,1-1.86.28Z"/><path class="cls-3" d="M125.46,493.5a7.39,7.39,0,0,0,1.83,2.13,7.91,7.91,0,0,0,2.52,1.29,7.16,7.16,0,0,0,2.91.28,7.3,7.3,0,0,0,6.3-5.15,6.71,6.71,0,0,0,.28-2.86,7.35,7.35,0,0,0-8.14-6.58,7.15,7.15,0,0,0-2.78.89,7.71,7.71,0,0,0-2.19,1.8,7,7,0,0,0-1.33,2.49,7.2,7.2,0,0,0-.28,3A7,7,0,0,0,125.46,493.5Z"/><path class="cls-3" d="M132,482.57a7.16,7.16,0,0,1,2.12.31,7.34,7.34,0,0,1,5.18,6.31,6.71,6.71,0,0,1-.28,2.86,7.43,7.43,0,0,1-1.3,2.46,7.45,7.45,0,0,1-5,2.69,7.09,7.09,0,0,1-.79,0,7,7,0,0,1-2.12-.32,7.91,7.91,0,0,1-2.52-1.29,7.39,7.39,0,0,1-1.83-2.13,7,7,0,0,1-.88-2.74,7.2,7.2,0,0,1,.28-3,7,7,0,0,1,1.33-2.49,7.71,7.71,0,0,1,2.19-1.8,7.15,7.15,0,0,1,2.78-.89,7.87,7.87,0,0,1,.84,0m0-1a7.66,7.66,0,0,0-.95.05,8.2,8.2,0,0,0-3.16,1,8.61,8.61,0,0,0-2.47,2,8.1,8.1,0,0,0-1.52,2.84,8.4,8.4,0,0,0-.31,3.36,8.14,8.14,0,0,0,3.09,5.55,8.81,8.81,0,0,0,2.84,1.47,8.28,8.28,0,0,0,2.41.36c.29,0,.59,0,.89,0a8.44,8.44,0,0,0,3.23-1,8.27,8.27,0,0,0,3.92-4.82,7.88,7.88,0,0,0,.33-3.28,8.5,8.5,0,0,0-1-3.23,8.34,8.34,0,0,0-7.28-4.28Z"/><path class="cls-3" d="M265.23,536.54a1.82,1.82,0,0,0-1.22-1.09,2.86,2.86,0,0,0-2.23.29,39.61,39.61,0,0,1-5.19,1.93,23.67,23.67,0,0,1-5,.89,24.89,24.89,0,0,1-5.15-.17,33.27,33.27,0,0,1-5.62-1.26,26.19,26.19,0,0,1-3.88-1.41,28.83,28.83,0,0,1-3.23-1.75,29.82,29.82,0,0,0,5.77-1.17,21.07,21.07,0,0,0,4.36-1.91,11.5,11.5,0,0,0,2.91-2.36,7.42,7.42,0,0,0,1.47-2.57,6.68,6.68,0,0,0,.17-3.38,8.28,8.28,0,0,0-1.59-3.31,12.79,12.79,0,0,0-3.34-2.94,21.12,21.12,0,0,0-5-2.23,31.77,31.77,0,0,0-9.31-1.56,24.71,24.71,0,0,0-7.78,1.09,16.81,16.81,0,0,0-5.83,3.15A12.48,12.48,0,0,0,212,521.4a10.11,10.11,0,0,0-.45,1.27l-.41.24a5.87,5.87,0,0,1-1.62.64,4.4,4.4,0,0,1-1.21.09l-1-.09a3.63,3.63,0,0,1-1.9-.68,6.61,6.61,0,0,1-1.44-1.49,21.78,21.78,0,0,0,2.11-4.84,20.15,20.15,0,0,0,.63-3.53,10.17,10.17,0,0,0-.19-3.17,5.06,5.06,0,0,0-1.23-2.39,3.71,3.71,0,0,0-2.51-1.09,4.94,4.94,0,0,0-3.3,1.22,11.28,11.28,0,0,0-3.07,3.58,12,12,0,0,0-1.48,5.12,9.89,9.89,0,0,0,1.55,5.83,12.37,12.37,0,0,1-2.24,1.83,3,3,0,0,1-1.61.58c-.47,0-1-.56-1.69-1.55a42.39,42.39,0,0,1-2.16-3.7q-1.19-2.22-2.49-4.81c-.88-1.72-1.77-3.33-2.69-4.82a26.65,26.65,0,0,0-2.71-3.75,4.11,4.11,0,0,0-2.56-1.62,5.73,5.73,0,0,0-2.92.67,22.75,22.75,0,0,0-3.4,2q-1.77,1.26-3.6,2.82t-3.45,3.1c-1.09,1-2.07,2-2.95,2.84a23.94,23.94,0,0,1-2.16,2,2,2,0,0,0-.85,1.65,2.39,2.39,0,0,0,.23.9q-.89.74-1.77,1.35a14.22,14.22,0,0,1-2.83,1.54,5,5,0,0,1-2.24.44,3.66,3.66,0,0,1-2.1-1.58c-.73-.94-1.54-2.07-2.42-3.39s-1.8-2.74-2.77-4.25a35.89,35.89,0,0,0-3.08-4.14,16,16,0,0,0-3.46-3,5.77,5.77,0,0,0-3.82-.93,4.43,4.43,0,0,0-2.55,1.22,20.59,20.59,0,0,0-2.67,3.06c-1,1.32-2.17,2.93-3.54,4.81s-3.07,4-5.12,6.49a3.65,3.65,0,0,0-1,2.19,2,2,0,0,0,.59,1.51A2.1,2.1,0,0,0,122,526a3,3,0,0,0,1.92-1q1.77-1.75,2.94-3.06a4.72,4.72,0,0,1,2.7-1.59c.34,0,.76.31,1.25,1s1.07,1.64,1.73,2.72,1.41,2.25,2.27,3.51a21.78,21.78,0,0,0,2.88,3.45,14.09,14.09,0,0,0,3.53,2.52,7.61,7.61,0,0,0,4.32.72,17.22,17.22,0,0,0,6-1.89,34.16,34.16,0,0,0,5.8-3.75,46.14,46.14,0,0,0,8.88-9.5,4.07,4.07,0,0,0,.44-.77l.41-.23a8,8,0,0,1,4.35-1q.71.06,1.68,1.32c.64.84,1.37,1.87,2.18,3.09s1.67,2.54,2.59,4a36.77,36.77,0,0,0,3,4,22.14,22.14,0,0,0,3.35,3.19,7,7,0,0,0,3.62,1.48,6.56,6.56,0,0,0,2.84-.48,17.14,17.14,0,0,0,3.2-1.65,24.09,24.09,0,0,0,3.32-2.58,38,38,0,0,0,3.18-3.28,11.58,11.58,0,0,0,2.4,1.28,10.36,10.36,0,0,0,3,.68,19,19,0,0,0,2.8,0,11.48,11.48,0,0,0,2.55-.47l.23-.08a12.63,12.63,0,0,0,2.31,4.86,23.18,23.18,0,0,0,6.08,5.38,41.52,41.52,0,0,0,10.11,4.46,49.22,49.22,0,0,0,11.19,2.25,42.84,42.84,0,0,0,9.06-.29,33.1,33.1,0,0,0,7.24-1.86c2.12-.84,4-1.66,5.72-2.44a4,4,0,0,0,1.91-1.79A2.39,2.39,0,0,0,265.23,536.54Zm-36.59-7.47a8.82,8.82,0,0,1-1.55-4.56,5.27,5.27,0,0,1,1.24-3.66,6.18,6.18,0,0,1,3.75-1.9,13.07,13.07,0,0,1,6.12.78,4.92,4.92,0,0,1,3.2,2.59,3.15,3.15,0,0,1-.6,3.25,9.21,9.21,0,0,1-4.29,2.67A20.33,20.33,0,0,1,228.64,529.07Z"/><path class="cls-3" d="M178,504.26h.33a4.11,4.11,0,0,1,2.56,1.62,26.65,26.65,0,0,1,2.71,3.75c.92,1.49,1.81,3.1,2.69,4.82s1.7,3.33,2.49,4.81a42.39,42.39,0,0,0,2.16,3.7c.65,1,1.22,1.51,1.69,1.55h.09a3.17,3.17,0,0,0,1.52-.58,12.37,12.37,0,0,0,2.24-1.83,9.89,9.89,0,0,1-1.55-5.83,12,12,0,0,1,1.48-5.12,11.28,11.28,0,0,1,3.07-3.58,5.25,5.25,0,0,1,3-1.23h.26a3.71,3.71,0,0,1,2.51,1.09,5.06,5.06,0,0,1,1.23,2.39,10.17,10.17,0,0,1,.19,3.17,20.15,20.15,0,0,1-.63,3.53,21.78,21.78,0,0,1-2.11,4.84,6.61,6.61,0,0,0,1.44,1.49,3.63,3.63,0,0,0,1.9.68l1,.09h.26a4.8,4.8,0,0,0,.95-.1,5.87,5.87,0,0,0,1.62-.64l.41-.24a10.11,10.11,0,0,1,.45-1.27,12.48,12.48,0,0,1,3.51-4.62,16.81,16.81,0,0,1,5.83-3.15,24.64,24.64,0,0,1,7.62-1.09h.16a31.77,31.77,0,0,1,9.31,1.56,21.12,21.12,0,0,1,5,2.23,12.79,12.79,0,0,1,3.34,2.94,8.28,8.28,0,0,1,1.59,3.31,6.68,6.68,0,0,1-.17,3.38,7.42,7.42,0,0,1-1.47,2.57,11.5,11.5,0,0,1-2.91,2.36,21.07,21.07,0,0,1-4.36,1.91,29.82,29.82,0,0,1-5.77,1.17,28.83,28.83,0,0,0,3.23,1.75,26.19,26.19,0,0,0,3.88,1.41,33.27,33.27,0,0,0,5.62,1.26,25.37,25.37,0,0,0,3.44.23q.87,0,1.71-.06a23.67,23.67,0,0,0,5-.89,39.61,39.61,0,0,0,5.19-1.93,3.51,3.51,0,0,1,1.53-.41,2,2,0,0,1,.7.12,1.82,1.82,0,0,1,1.22,1.09,2.39,2.39,0,0,1-.18,1.78,4,4,0,0,1-1.91,1.79c-1.69.78-3.6,1.6-5.72,2.44a33.1,33.1,0,0,1-7.24,1.86,37.64,37.64,0,0,1-5.69.4c-1.08,0-2.21,0-3.37-.11a49.22,49.22,0,0,1-11.19-2.25A41.52,41.52,0,0,1,219.82,538a23.18,23.18,0,0,1-6.08-5.38,12.63,12.63,0,0,1-2.31-4.86l-.23.08a11.48,11.48,0,0,1-2.55.47c-.35,0-.71,0-1.07,0-.56,0-1.13,0-1.73-.08a10.36,10.36,0,0,1-3-.68,11.58,11.58,0,0,1-2.4-1.28,38,38,0,0,1-3.18,3.28,24.09,24.09,0,0,1-3.32,2.58,17.14,17.14,0,0,1-3.2,1.65,6.89,6.89,0,0,1-2.42.5l-.42,0a7,7,0,0,1-3.62-1.48,22.14,22.14,0,0,1-3.35-3.19,36.77,36.77,0,0,1-3-4q-1.38-2.13-2.59-4c-.81-1.22-1.54-2.25-2.18-3.09s-1.21-1.28-1.68-1.32l-.59,0a8.13,8.13,0,0,0-3.76,1l-.41.23a4.07,4.07,0,0,1-.44.77,46.14,46.14,0,0,1-8.88,9.5,34.16,34.16,0,0,1-5.8,3.75,17.22,17.22,0,0,1-6,1.89c-.33,0-.65,0-1,0a7.27,7.27,0,0,1-3.35-.77,14.09,14.09,0,0,1-3.53-2.52,21.78,21.78,0,0,1-2.88-3.45c-.86-1.26-1.61-2.43-2.27-3.51s-1.24-2-1.73-2.72-.87-1-1.2-1h0a4.72,4.72,0,0,0-2.7,1.59q-1.17,1.31-2.94,3.06a3,3,0,0,1-1.92,1h-.14a2,2,0,0,1-1.41-.49,2,2,0,0,1-.59-1.51,3.65,3.65,0,0,1,1-2.19q3.08-3.66,5.12-6.49c1.37-1.88,2.54-3.49,3.54-4.81a20.59,20.59,0,0,1,2.67-3.06,4.58,4.58,0,0,1,3.17-1.26,5.87,5.87,0,0,1,3.2,1,16,16,0,0,1,3.46,3,35.89,35.89,0,0,1,3.08,4.14q1.46,2.26,2.77,4.25c.88,1.32,1.69,2.45,2.42,3.39a3.66,3.66,0,0,0,2.1,1.58h.29a5.62,5.62,0,0,0,2-.45,14.22,14.22,0,0,0,2.83-1.54q.88-.62,1.77-1.35a2.39,2.39,0,0,1-.23-.9,2,2,0,0,1,.85-1.65,23.94,23.94,0,0,0,2.16-2c.88-.88,1.86-1.83,2.95-2.84s2.23-2.05,3.45-3.1,2.42-2,3.6-2.82a22.75,22.75,0,0,1,3.4-2,6.13,6.13,0,0,1,2.59-.68m52.48,24.86a18,18,0,0,0,6-.88,9.21,9.21,0,0,0,4.29-2.67,3.15,3.15,0,0,0,.6-3.25,4.92,4.92,0,0,0-3.2-2.59,15.54,15.54,0,0,0-4.75-.89,8.54,8.54,0,0,0-1.37.11,6.18,6.18,0,0,0-3.75,1.9,5.27,5.27,0,0,0-1.24,3.66,8.82,8.82,0,0,0,1.55,4.56c.63,0,1.24,0,1.83,0M178,503.26h0a7,7,0,0,0-3,.78,24.32,24.32,0,0,0-3.55,2.1c-1.2.85-2.43,1.82-3.67,2.88s-2.39,2.1-3.49,3.12-2.09,2-3,2.87a21.78,21.78,0,0,1-2.06,1.88A3,3,0,0,0,158,519.4a2.74,2.74,0,0,0,.07.5c-.4.31-.79.6-1.17.86a13.12,13.12,0,0,1-2.64,1.44,4.44,4.44,0,0,1-1.58.38h-.17c-.2,0-.68-.23-1.43-1.19s-1.52-2-2.37-3.34-1.82-2.74-2.77-4.22a35.44,35.44,0,0,0-3.17-4.26,16.55,16.55,0,0,0-3.68-3.22,6.94,6.94,0,0,0-3.73-1.12c-.24,0-.48,0-.73,0a5.55,5.55,0,0,0-3.11,1.47,23.31,23.31,0,0,0-2.81,3.21c-.95,1.27-2.11,2.85-3.54,4.83s-3,4-5.07,6.43a4.58,4.58,0,0,0-1.21,2.84,2.94,2.94,0,0,0,.91,2.24,3,3,0,0,0,2.09.75h.18a3.82,3.82,0,0,0,2.59-1.28c1.17-1.16,2.17-2.2,3-3.09a3.85,3.85,0,0,1,1.93-1.23,3.58,3.58,0,0,1,.45.57c.48.71,1.05,1.61,1.7,2.68s1.46,2.31,2.3,3.55a22.8,22.8,0,0,0,3,3.6,15.13,15.13,0,0,0,3.79,2.71,8.35,8.35,0,0,0,3.79.87,9.91,9.91,0,0,0,1.08-.06,18.11,18.11,0,0,0,6.38-2,35.36,35.36,0,0,0,6-3.86,45.53,45.53,0,0,0,5.16-4.82,43.23,43.23,0,0,0,3.92-4.9,3.42,3.42,0,0,0,.38-.62l.11,0a7.1,7.1,0,0,1,3.3-.88l.5,0h0s.32.08,1,.93,1.35,1.84,2.13,3,1.68,2.53,2.59,4a37.1,37.1,0,0,0,3.07,4.1,21.76,21.76,0,0,0,3.5,3.33,7.85,7.85,0,0,0,4.13,1.68l.51,0a8,8,0,0,0,2.78-.56,18.52,18.52,0,0,0,3.39-1.74,26,26,0,0,0,3.44-2.69c.93-.85,1.83-1.76,2.69-2.71a13.8,13.8,0,0,0,1.85.9,11.89,11.89,0,0,0,3.32.75c.62,0,1.23.08,1.81.08.38,0,.77,0,1.14,0a11.23,11.23,0,0,0,2-.3,14.27,14.27,0,0,0,2.22,4.21,24.17,24.17,0,0,0,6.34,5.63,42.34,42.34,0,0,0,10.35,4.57,50.81,50.81,0,0,0,11.43,2.3c1.18.07,2.33.11,3.43.11a39.65,39.65,0,0,0,5.84-.41,34,34,0,0,0,7.46-1.92c2.14-.85,4.08-1.68,5.77-2.47a5.07,5.07,0,0,0,2.41-2.28,3.39,3.39,0,0,0,.2-2.53,2.76,2.76,0,0,0-1.83-1.7,3.22,3.22,0,0,0-1-.17,4.47,4.47,0,0,0-2,.51,38.44,38.44,0,0,1-5,1.87,24.36,24.36,0,0,1-4.79.86c-.54,0-1.09,0-1.64,0a25,25,0,0,1-3.31-.22,32.52,32.52,0,0,1-5.45-1.23,23.85,23.85,0,0,1-3.76-1.36l-.6-.29a24.63,24.63,0,0,0,3-.77,21.79,21.79,0,0,0,4.57-2,12.52,12.52,0,0,0,3.16-2.57,8.45,8.45,0,0,0,1.67-2.92,7.74,7.74,0,0,0,.19-3.88,9.18,9.18,0,0,0-1.78-3.72,13.68,13.68,0,0,0-3.59-3.17,21.81,21.81,0,0,0-5.26-2.35,32.94,32.94,0,0,0-9.59-1.6H229a26.05,26.05,0,0,0-7.93,1.13,18,18,0,0,0-6.17,3.35,13.6,13.6,0,0,0-3.78,5,9.84,9.84,0,0,0-.37,1l0,0a4.74,4.74,0,0,1-1.33.54,4.47,4.47,0,0,1-.76.08h-.18l-.53,0-.5,0a2.66,2.66,0,0,1-1.38-.49,5.12,5.12,0,0,1-.84-.78,22,22,0,0,0,1.87-4.47,21.27,21.27,0,0,0,.66-3.72,11.32,11.32,0,0,0-.2-3.49,6.15,6.15,0,0,0-1.48-2.84,4.75,4.75,0,0,0-3.16-1.41h-.34a6.23,6.23,0,0,0-3.63,1.42,12.34,12.34,0,0,0-3.35,3.9,12.93,12.93,0,0,0-1.61,5.53,10.55,10.55,0,0,0,1.3,5.72,10.53,10.53,0,0,1-1.51,1.17,2.38,2.38,0,0,1-1,.43s-.32-.15-1-1.1-1.34-2.17-2.11-3.62-1.62-3.08-2.48-4.79-1.81-3.4-2.72-4.89a28.92,28.92,0,0,0-2.81-3.89,5,5,0,0,0-3.24-2l-.41,0Zm51.23,24.83a7.46,7.46,0,0,1-1.13-3.6,4.27,4.27,0,0,1,1-3,5.22,5.22,0,0,1,3.16-1.56,7.56,7.56,0,0,1,1.2-.1,14.34,14.34,0,0,1,4.43.84,4,4,0,0,1,2.59,2A2.17,2.17,0,0,1,240,525a8.38,8.38,0,0,1-3.84,2.35,17.27,17.27,0,0,1-5.7.82l-1.25,0Z"/></g></g></svg>